<svg width="334" height="95" viewBox="0 0 334 95" fill="none" xmlns="http://www.w3.org/2000/svg">
<g filter="url(#filter0_d_1_11358)">
<rect x="14.9999" y="15.495" width="293.753" height="54.5046" fill="#E3B873"/>
</g>
<path d="M84.7772 48.9804C84.1086 48.9804 83.5192 48.8727 83.0092 48.6574C82.5106 48.4307 82.1252 48.1474 81.8532 47.8074C81.5926 47.4674 81.4622 47.1217 81.4622 46.7704C81.4622 46.3851 81.5756 46.0791 81.8022 45.8524C82.0402 45.6144 82.3519 45.4954 82.7372 45.4954C82.8279 45.4954 82.9186 45.5067 83.0092 45.5294C83.0999 45.5407 83.1622 45.5464 83.1962 45.5464L83.4172 45.5804V48.3004L83.7402 48.4364C83.9442 48.5157 84.1766 48.5554 84.4372 48.5554C84.9926 48.5554 85.4459 48.4081 85.7972 48.1134C86.1486 47.8187 86.4206 47.2747 86.6132 46.4814C86.8059 45.6881 86.9022 44.5661 86.9022 43.1154C86.8002 43.2854 86.6416 43.4554 86.4262 43.6254C85.9956 43.9654 85.5026 44.1354 84.9472 44.1354C84.1199 44.1354 83.3946 43.9824 82.7712 43.6764C82.1592 43.3591 81.6889 42.9227 81.3602 42.3674C81.0316 41.8121 80.8672 41.1831 80.8672 40.4804C80.8672 39.2677 81.2412 38.3157 81.9892 37.6244C82.7486 36.9217 83.8196 36.5704 85.2022 36.5704C86.6302 36.5704 87.7522 37.0804 88.5682 38.1004C89.3842 39.1204 89.7922 40.6787 89.7922 42.7754C89.7922 44.8154 89.3446 46.3624 88.4492 47.4164C87.5652 48.4591 86.3412 48.9804 84.7772 48.9804ZM85.2872 43.7104C85.7519 43.7104 86.1202 43.4837 86.3922 43.0304C86.6756 42.5771 86.8172 41.8687 86.8172 40.9054C86.8172 39.4661 86.6586 38.4404 86.3412 37.8284C86.0352 37.2164 85.6556 36.9104 85.2022 36.9104C84.9756 36.9104 84.7489 37.0237 84.5222 37.2504C84.3069 37.4771 84.1256 37.8454 83.9782 38.3554C83.8309 38.8654 83.7572 39.5171 83.7572 40.3104C83.7572 41.1037 83.8309 41.7554 83.9782 42.2654C84.1369 42.7754 84.3296 43.1437 84.5562 43.3704C84.7942 43.5971 85.0379 43.7104 85.2872 43.7104ZM96.3392 48.9804C95.4212 48.9804 94.5882 48.7367 93.8402 48.2494C93.0922 47.7621 92.4972 47.0537 92.0552 46.1244C91.6246 45.1837 91.4092 44.0674 91.4092 42.7754C91.4092 41.4834 91.6246 40.3727 92.0552 39.4434C92.4972 38.5027 93.0922 37.7887 93.8402 37.3014C94.5882 36.8141 95.4212 36.5704 96.3392 36.5704C97.2572 36.5704 98.0902 36.8141 98.8382 37.3014C99.5862 37.7887 100.176 38.5027 100.606 39.4434C101.048 40.3727 101.269 41.4834 101.269 42.7754C101.269 44.0674 101.048 45.1837 100.606 46.1244C100.176 47.0537 99.5862 47.7621 98.8382 48.2494C98.0902 48.7367 97.2572 48.9804 96.3392 48.9804ZM96.3392 48.6404C97.6426 48.6404 98.2942 46.6854 98.2942 42.7754C98.2942 38.8654 97.6426 36.9104 96.3392 36.9104C95.0359 36.9104 94.3842 38.8654 94.3842 42.7754C94.3842 46.6854 95.0359 48.6404 96.3392 48.6404ZM109.178 38.9504V47.9604L110.538 48.4704V48.7254H107.308V48.4704L108.668 47.9604V37.3354L107.478 37.0804V36.8254H109.773C110.362 36.8254 110.827 36.9501 111.167 37.1994C111.518 37.4374 111.818 37.7944 112.068 38.2704L115.774 45.3594L118.613 38.2704C118.805 37.7717 119.066 37.4091 119.395 37.1824C119.723 36.9444 120.228 36.8254 120.908 36.8254H122.693V37.0804L121.673 37.3354V48.2154L122.693 48.4704V48.7254H117.848V48.4704L118.868 48.2154V38.9504L114.873 48.8954H114.363L109.178 38.9504ZM124.059 47.9604C124.059 47.2917 124.189 46.6854 124.45 46.1414C124.722 45.5861 125.05 45.1044 125.436 44.6964C125.821 44.2884 126.325 43.8067 126.949 43.2514C127.527 42.7414 127.98 42.3164 128.309 41.9764C128.637 41.6251 128.915 41.2341 129.142 40.8034C129.368 40.3614 129.482 39.8854 129.482 39.3754C129.482 38.6274 129.3 38.0437 128.938 37.6244C128.575 37.2051 128.105 36.9954 127.527 36.9954C127.198 36.9954 126.864 37.0407 126.524 37.1314L126.167 37.2504V39.9704L125.946 40.0214C125.764 40.0441 125.611 40.0554 125.487 40.0554C125.101 40.0554 124.79 39.9421 124.552 39.7154C124.325 39.4774 124.212 39.1657 124.212 38.7804C124.212 38.4177 124.348 38.0664 124.62 37.7264C124.903 37.3864 125.317 37.1087 125.861 36.8934C126.416 36.6781 127.085 36.5704 127.867 36.5704C129.397 36.5704 130.53 36.8764 131.267 37.4884C132.003 38.1004 132.372 38.9561 132.372 40.0554C132.372 40.7467 132.19 41.3417 131.828 41.8404C131.476 42.3391 131.04 42.7527 130.519 43.0814C130.009 43.4101 129.323 43.7841 128.462 44.2034C127.736 44.5547 127.147 44.8664 126.694 45.1384C126.252 45.3991 125.838 45.7164 125.453 46.0904C125.079 46.4644 124.812 46.8894 124.654 47.3654H130.944C131.023 46.7534 131.216 46.2434 131.522 45.8354C131.646 45.6427 131.794 45.4727 131.964 45.3254H132.474V48.7254H124.059V47.9604Z" fill="white"/>
<path fill-rule="evenodd" clip-rule="evenodd" d="M35.2502 26.9833C35.2502 26.7704 35.4285 26.5978 35.6483 26.5978H64.3115C64.5313 26.5978 64.7096 26.7704 64.7096 26.9833V54.8635C64.7096 55.0764 64.5313 55.249 64.3115 55.249C64.0916 55.249 63.9134 55.0764 63.9134 54.8635V27.3687H35.6483C35.4285 27.3687 35.2502 27.1962 35.2502 26.9833Z" fill="white" stroke="white" stroke-width="0.5"/>
<path d="M33.1276 32.9595L34.7531 31.3188L34.7531 55.3004L34.7531 55.4254L34.8781 55.4254L35.668 55.4254L35.793 55.4254L35.793 55.3004L35.793 31.3188L37.4185 32.9595C37.6216 33.1645 37.9515 33.1645 38.1546 32.9595C38.3571 32.7551 38.3571 32.4242 38.1546 32.2198L35.6411 29.6828C35.438 29.4777 35.1081 29.4777 34.905 29.6828L32.3915 32.2198C32.189 32.4242 32.189 32.7551 32.3915 32.9595C32.5946 33.1645 32.9245 33.1645 33.1276 32.9595Z" fill="white" stroke="white" stroke-width="0.25"/>
<path d="M58.7622 54.7769L34.8771 54.7769H34.7521V54.9019V55.6992V55.8242H34.8771L58.7622 55.8242L57.1257 57.4674C56.9221 57.6719 56.9221 58.0031 57.1257 58.2076C57.3296 58.4123 57.6604 58.4123 57.8643 58.2076L60.3909 55.6706C60.5946 55.4661 60.5946 55.1349 60.3909 54.9304L57.8643 52.3934C57.6604 52.1887 57.3296 52.1887 57.1257 52.3934C56.9221 52.5979 56.9221 52.9292 57.1257 53.1336L58.7622 54.7769Z" fill="white" stroke="white" stroke-width="0.25"/>
<path fill-rule="evenodd" clip-rule="evenodd" d="M46.1624 26.7146C46.3167 26.8703 46.3167 27.1227 46.1624 27.2784L41.4229 32.0622C41.2687 32.2178 41.0186 32.2178 40.8644 32.0622C40.7101 31.9065 40.7101 31.6541 40.8644 31.4984L45.6039 26.7146C45.7581 26.5589 46.0082 26.5589 46.1624 26.7146Z" fill="white" stroke="white" stroke-width="0.5" stroke-linecap="round" stroke-linejoin="round"/>
<path fill-rule="evenodd" clip-rule="evenodd" d="M64.4622 45.7168C64.6164 45.8725 64.6164 46.1249 64.4622 46.2806L60.1177 50.6657C59.9634 50.8214 59.7133 50.8214 59.5591 50.6657C59.4049 50.51 59.4049 50.2576 59.5591 50.1019L63.9036 45.7168C64.0579 45.5611 64.308 45.5611 64.4622 45.7168Z" fill="white" stroke="white" stroke-width="0.5" stroke-linecap="round" stroke-linejoin="round"/>
<path fill-rule="evenodd" clip-rule="evenodd" d="M52.085 26.7128C52.2402 26.8675 52.2418 27.1199 52.0886 27.2766L41.8196 37.7743C41.6664 37.931 41.4163 37.9326 41.2611 37.7779C41.1059 37.6232 41.1043 37.3708 41.2575 37.2142L51.5264 26.7164C51.6797 26.5597 51.9298 26.5581 52.085 26.7128Z" fill="white" stroke="white" stroke-width="0.5" stroke-linecap="round" stroke-linejoin="round"/>
<path fill-rule="evenodd" clip-rule="evenodd" d="M64.5938 39.0722C64.748 39.2279 64.748 39.4803 64.5938 39.636L54.5882 49.7351C54.434 49.8908 54.1839 49.8908 54.0296 49.7351C53.8754 49.5794 53.8754 49.327 54.0296 49.1713L64.0352 39.0722C64.1895 38.9165 64.4396 38.9165 64.5938 39.0722Z" fill="white" stroke="white" stroke-width="0.5" stroke-linecap="round" stroke-linejoin="round"/>
<path fill-rule="evenodd" clip-rule="evenodd" d="M58.4084 26.8492C58.5614 27.0061 58.5594 27.2585 58.4039 27.413L41.9473 43.7576C41.7918 43.912 41.5417 43.91 41.3888 43.753C41.2358 43.5961 41.2378 43.3437 41.3933 43.1893L57.8498 26.8447C58.0053 26.6902 58.2554 26.6923 58.4084 26.8492Z" fill="white" stroke="white" stroke-width="0.5" stroke-linecap="round" stroke-linejoin="round"/>
<path fill-rule="evenodd" clip-rule="evenodd" d="M64.5939 32.827C64.7481 32.9827 64.7481 33.2351 64.5939 33.3908L48.0056 50.1341C47.8514 50.2897 47.6013 50.2897 47.4471 50.1341C47.2928 49.9784 47.2928 49.726 47.4471 49.5703L64.0353 32.827C64.1896 32.6713 64.4396 32.6713 64.5939 32.827Z" fill="white" stroke="white" stroke-width="0.5" stroke-linecap="round" stroke-linejoin="round"/>
<path fill-rule="evenodd" clip-rule="evenodd" d="M64.3306 26.8469C64.4848 27.0026 64.4848 27.255 64.3306 27.4107L41.6863 50.2666C41.5321 50.4223 41.282 50.4223 41.1278 50.2666C40.9735 50.1109 40.9735 49.8585 41.1278 49.7028L63.772 26.8469C63.9263 26.6912 64.1763 26.6912 64.3306 26.8469Z" fill="white" stroke="white" stroke-width="0.5" stroke-linecap="round" stroke-linejoin="round"/>
<path d="M215.409 48.7254V48.4704L216.599 48.1304V38.7974L214.814 40.0554L214.474 39.6304L217.568 36.8254H219.404V48.1304L220.594 48.4704V48.7254H215.409ZM221.785 47.9604C221.785 47.2917 221.915 46.6854 222.176 46.1414C222.448 45.5861 222.776 45.1044 223.162 44.6964C223.547 44.2884 224.051 43.8067 224.675 43.2514C225.253 42.7414 225.706 42.3164 226.035 41.9764C226.363 41.6251 226.641 41.2341 226.868 40.8034C227.094 40.3614 227.208 39.8854 227.208 39.3754C227.208 38.6274 227.026 38.0437 226.664 37.6244C226.301 37.2051 225.831 36.9954 225.253 36.9954C224.924 36.9954 224.59 37.0407 224.25 37.1314L223.893 37.2504V39.9704L223.672 40.0214C223.49 40.0441 223.337 40.0554 223.213 40.0554C222.827 40.0554 222.516 39.9421 222.278 39.7154C222.051 39.4774 221.938 39.1657 221.938 38.7804C221.938 38.4177 222.074 38.0664 222.346 37.7264C222.629 37.3864 223.043 37.1087 223.587 36.8934C224.142 36.6781 224.811 36.5704 225.593 36.5704C227.123 36.5704 228.256 36.8764 228.993 37.4884C229.729 38.1004 230.098 38.9561 230.098 40.0554C230.098 40.7467 229.916 41.3417 229.554 41.8404C229.202 42.3391 228.766 42.7527 228.245 43.0814C227.735 43.4101 227.049 43.7841 226.188 44.2034C225.462 44.5547 224.873 44.8664 224.42 45.1384C223.978 45.3991 223.564 45.7164 223.179 46.0904C222.805 46.4644 222.538 46.8894 222.38 47.3654H228.67C228.749 46.7534 228.942 46.2434 229.248 45.8354C229.372 45.6427 229.52 45.4727 229.69 45.3254H230.2V48.7254H221.785V47.9604ZM236.068 48.9804C234.64 48.9804 233.558 48.6971 232.821 48.1304C232.096 47.5637 231.733 46.8271 231.733 45.9204C231.733 45.2971 232.005 44.6964 232.549 44.1184C233.093 43.5291 233.756 43.1097 234.538 42.8604C233.79 42.4411 233.218 41.9821 232.821 41.4834C232.436 40.9734 232.243 40.3557 232.243 39.6304C232.243 38.7237 232.606 37.9871 233.331 37.4204C234.068 36.8537 235.15 36.5704 236.578 36.5704C237.292 36.5704 237.915 36.7007 238.448 36.9614C238.992 37.2221 239.411 37.5621 239.706 37.9814C240.001 38.4007 240.148 38.8371 240.148 39.2904C240.148 39.8231 239.916 40.3387 239.451 40.8374C238.998 41.3361 238.465 41.6704 237.853 41.8404C238.884 42.2937 239.666 42.8321 240.199 43.4554C240.732 44.0787 240.998 44.8437 240.998 45.7504C240.998 46.3397 240.817 46.8781 240.454 47.3654C240.091 47.8527 239.542 48.2437 238.805 48.5384C238.068 48.8331 237.156 48.9804 236.068 48.9804ZM237.343 41.5004C237.774 41.3077 238.119 41.0301 238.38 40.6674C238.652 40.3047 238.788 39.8457 238.788 39.2904C238.788 38.8824 238.686 38.5027 238.482 38.1514C238.289 37.8001 238.034 37.5224 237.717 37.3184C237.411 37.1031 237.088 36.9954 236.748 36.9954C236.261 36.9954 235.853 37.1881 235.524 37.5734C235.207 37.9474 235.048 38.4631 235.048 39.1204C235.048 40.0271 235.813 40.8204 237.343 41.5004ZM235.898 48.5554C236.623 48.5554 237.184 48.3571 237.581 47.9604C237.989 47.5524 238.193 46.9857 238.193 46.2604C238.193 45.7164 237.921 45.1667 237.377 44.6114C236.833 44.0561 236.113 43.5857 235.218 43.2004C234.583 43.4271 234.085 43.7671 233.722 44.2204C233.359 44.6624 233.178 45.2291 233.178 45.9204C233.178 46.3964 233.297 46.8384 233.535 47.2464C233.784 47.6431 234.113 47.9604 234.521 48.1984C234.94 48.4364 235.399 48.5554 235.898 48.5554ZM247.127 48.4704L248.147 48.2154V37.3354L247.127 37.0804V36.8254H251.462C253.49 36.8254 255.043 37.3467 256.12 38.3894C257.208 39.4321 257.752 40.8941 257.752 42.7754C257.752 44.6567 257.208 46.1187 256.12 47.1614C255.043 48.2041 253.49 48.7254 251.462 48.7254H247.127V48.4704ZM251.462 48.3004C252.516 48.3004 253.332 47.8754 253.91 47.0254C254.488 46.1641 254.777 44.7474 254.777 42.7754C254.777 40.8034 254.488 39.3924 253.91 38.5424C253.332 37.6811 252.516 37.2504 251.462 37.2504H250.952V48.3004H251.462ZM257.574 48.4704L258.934 47.9604L263.609 36.6554H264.119L268.964 48.2154L269.814 48.4704V48.7254H267.774C267.185 48.7254 266.703 48.5951 266.329 48.3344C265.955 48.0624 265.678 47.7111 265.496 47.2804L264.629 45.2404H260.566L259.444 47.9604L260.719 48.4704V48.7254H257.574V48.4704ZM260.736 44.8154H264.459L262.589 40.3444L260.736 44.8154ZM271.589 48.4704L272.609 48.2154V44.3054L269.124 37.3354L268.274 37.0804V36.8254H270.399C270.988 36.8254 271.458 36.9501 271.81 37.1994C272.172 37.4487 272.467 37.8057 272.694 38.2704L275.21 43.2854L277.794 37.5904L276.519 37.0804V36.8254H279.749V37.0804L278.389 37.5904L275.414 44.1354V48.2154L276.434 48.4704V48.7254H271.589V48.4704ZM284.08 48.9804C283.275 48.9804 282.521 48.7991 281.819 48.4364C281.501 48.2777 281.235 48.0907 281.02 47.8754C280.861 48.1361 280.663 48.3684 280.425 48.5724C280.221 48.7197 280.107 48.7991 280.085 48.8104H279.66V45.5804H280.34C280.51 46.1357 280.748 46.6344 281.054 47.0764C281.745 48.0624 282.64 48.5554 283.74 48.5554C284.386 48.5554 284.901 48.3627 285.287 47.9774C285.672 47.5921 285.865 47.0764 285.865 46.4304C285.865 46.0564 285.751 45.7221 285.525 45.4274C285.309 45.1327 285.037 44.8721 284.709 44.6454C284.38 44.4187 283.921 44.1354 283.332 43.7954C282.584 43.3761 281.977 42.9964 281.513 42.6564C281.048 42.3164 280.651 41.8914 280.323 41.3814C279.994 40.8601 279.83 40.2481 279.83 39.5454C279.83 38.9901 279.983 38.4914 280.289 38.0494C280.606 37.5961 281.076 37.2391 281.7 36.9784C282.323 36.7064 283.088 36.5704 283.995 36.5704C284.652 36.5704 285.309 36.7574 285.967 37.1314C286.216 37.2674 286.465 37.4487 286.715 37.6754C286.907 37.3807 287.106 37.1484 287.31 36.9784C287.514 36.8311 287.627 36.7517 287.65 36.7404H288.075V39.9704H287.395C287.247 39.4264 287.026 38.9334 286.732 38.4914C286.46 38.0607 286.12 37.7037 285.712 37.4204C285.315 37.1371 284.856 36.9954 284.335 36.9954C283.893 36.9954 283.513 37.1711 283.196 37.5224C282.878 37.8737 282.72 38.3214 282.72 38.8654C282.72 39.2847 282.839 39.6644 283.077 40.0044C283.326 40.3331 283.626 40.6221 283.978 40.8714C284.34 41.1207 284.828 41.4211 285.44 41.7724C286.154 42.1804 286.732 42.5431 287.174 42.8604C287.616 43.1777 287.99 43.5744 288.296 44.0504C288.602 44.5151 288.755 45.0534 288.755 45.6654C288.755 46.2774 288.579 46.8384 288.228 47.3484C287.876 47.8471 287.349 48.2437 286.647 48.5384C285.944 48.8331 285.088 48.9804 284.08 48.9804Z" fill="white"/>
<path d="M150.09 70.0349L150.09 15.495" stroke="white" stroke-width="0.75"/>
<path d="M191.597 28.8171C191.334 27.5527 190.193 26.5978 188.829 26.5978C188.517 26.5978 188.264 26.8458 188.264 27.1526C188.264 27.4595 188.517 27.7075 188.829 27.7075C189.763 27.7075 190.524 28.4542 190.524 29.3719C190.524 30.2895 189.763 31.0363 188.829 31.0363C188.517 31.0363 188.264 31.2843 188.264 31.5911C188.264 31.8979 188.517 32.1459 188.829 32.1459C190.193 32.1459 191.334 31.1911 191.597 29.9267H198.998V34.92H168.491V29.9267H176.4H178.095C178.407 29.9267 178.66 29.6787 178.66 29.3719C178.66 29.0651 178.407 28.8171 178.095 28.8171H177.069C177.303 28.1724 177.925 27.7075 178.66 27.7075C179.595 27.7075 180.355 28.4542 180.355 29.3719C180.355 30.2895 179.595 31.0363 178.66 31.0363C178.348 31.0363 178.095 31.2843 178.095 31.5911C178.095 31.8979 178.348 32.1459 178.66 32.1459C180.218 32.1459 181.485 30.9015 181.485 29.3719C181.485 27.8423 180.218 26.5978 178.66 26.5978C177.296 26.5978 176.155 27.5527 175.892 28.8171H167.361V36.0296V58.2219H200.128V36.0296V28.8171H191.597ZM198.998 57.1123H168.491V36.0296H198.998V57.1123Z" fill="white"/>
<path d="M182.05 27.7075C182.984 27.7075 183.745 28.4542 183.745 29.3719C183.745 30.2895 182.984 31.0363 182.05 31.0363C181.738 31.0363 181.485 31.2843 181.485 31.5911C181.485 31.8979 181.738 32.1459 182.05 32.1459C183.607 32.1459 184.874 30.9015 184.874 29.3719C184.874 27.8423 183.607 26.5978 182.05 26.5978C181.738 26.5978 181.485 26.8458 181.485 27.1526C181.485 27.4595 181.738 27.7075 182.05 27.7075Z" fill="white"/>
<path d="M185.439 27.7075C186.374 27.7075 187.134 28.4542 187.134 29.3719C187.134 30.2895 186.374 31.0363 185.439 31.0363C185.128 31.0363 184.874 31.2843 184.874 31.5911C184.874 31.8979 185.128 32.1459 185.439 32.1459C186.997 32.1459 188.264 30.9015 188.264 29.3719C188.264 27.8423 186.997 26.5978 185.439 26.5978C185.128 26.5978 184.874 26.8458 184.874 27.1526C184.874 27.4595 185.128 27.7075 185.439 27.7075Z" fill="white"/>
<path d="M172.446 40.4678H184.874C185.186 40.4678 185.439 40.2198 185.439 39.913C185.439 39.6062 185.186 39.3582 184.874 39.3582H172.446C172.134 39.3582 171.881 39.6062 171.881 39.913C171.881 40.2198 172.134 40.4678 172.446 40.4678Z" fill="white"/>
<path d="M195.043 48.2354H186.569C186.257 48.2354 186.004 48.4834 186.004 48.7902C186.004 49.097 186.257 49.345 186.569 49.345H195.043C195.355 49.345 195.608 49.097 195.608 48.7902C195.608 48.4834 195.355 48.2354 195.043 48.2354Z" fill="white"/>
<path d="M172.446 44.9069H178.095C178.407 44.9069 178.66 44.6589 178.66 44.3521C178.66 44.0452 178.407 43.7972 178.095 43.7972H172.446C172.134 43.7972 171.881 44.0452 171.881 44.3521C171.881 44.6589 172.134 44.9069 172.446 44.9069Z" fill="white"/>
<path d="M195.043 52.674H189.394C189.082 52.674 188.829 52.922 188.829 53.2288C188.829 53.5356 189.082 53.7836 189.394 53.7836H195.043C195.355 53.7836 195.608 53.5356 195.608 53.2288C195.608 52.922 195.355 52.674 195.043 52.674Z" fill="white"/>
<path d="M183.18 44.3521C183.18 44.6589 183.433 44.9069 183.745 44.9069H192.219C192.531 44.9069 192.784 44.6589 192.784 44.3521C192.784 44.0452 192.531 43.7972 192.219 43.7972H183.745C183.433 43.7972 183.18 44.0452 183.18 44.3521Z" fill="white"/>
<path d="M181.321 44.7457C181.423 44.6403 181.485 44.4961 181.485 44.3518C181.485 44.207 181.423 44.0628 181.321 43.9579C181.112 43.7526 180.728 43.7526 180.519 43.9579C180.417 44.0628 180.355 44.207 180.355 44.3518C180.355 44.4961 180.417 44.6403 180.519 44.7457C180.626 44.8506 180.773 44.9066 180.92 44.9066C181.067 44.9066 181.214 44.8506 181.321 44.7457Z" fill="white"/>
<path d="M174.706 48.7902C174.706 49.097 174.959 49.345 175.27 49.345H183.745C184.056 49.345 184.31 49.097 184.31 48.7902C184.31 48.4834 184.056 48.2354 183.745 48.2354H175.27C174.959 48.2354 174.706 48.4834 174.706 48.7902Z" fill="white"/>
<path d="M172.446 49.345C172.593 49.345 172.74 49.284 172.847 49.1841C172.949 49.0787 173.011 48.9345 173.011 48.7902C173.011 48.6454 172.949 48.5012 172.847 48.4019C172.638 48.191 172.254 48.191 172.045 48.3963C171.943 48.5012 171.881 48.6454 171.881 48.7902C171.881 48.9345 171.943 49.0787 172.045 49.1841C172.152 49.284 172.293 49.345 172.446 49.345Z" fill="white"/>
<path d="M195.043 44.9066C195.19 44.9066 195.337 44.8506 195.444 44.7457C195.552 44.6403 195.608 44.4961 195.608 44.3518C195.608 44.207 195.552 44.0628 195.444 43.9579C195.23 43.7526 194.851 43.7526 194.642 43.9579C194.541 44.0628 194.478 44.207 194.478 44.3518C194.478 44.4961 194.541 44.6403 194.642 44.7457C194.75 44.8506 194.896 44.9066 195.043 44.9066Z" fill="white"/>
<path d="M186.569 52.674H172.446C172.134 52.674 171.881 52.922 171.881 53.2288C171.881 53.5356 172.134 53.7836 172.446 53.7836H186.569C186.881 53.7836 187.134 53.5356 187.134 53.2288C187.134 52.922 186.881 52.674 186.569 52.674Z" fill="white"/>
<defs>
<filter id="filter0_d_1_11358" x="-6.10352e-05" y="0.494995" width="333.753" height="94.5046" filterUnits="userSpaceOnUse" color-interpolation-filters="sRGB">
<feFlood flood-opacity="0" result="BackgroundImageFix"/>
<feColorMatrix in="SourceAlpha" type="matrix" values="0 0 0 0 0 0 0 0 0 0 0 0 0 0 0 0 0 0 127 0" result="hardAlpha"/>
<feOffset dx="5" dy="5"/>
<feGaussianBlur stdDeviation="10"/>
<feColorMatrix type="matrix" values="0 0 0 0 0.890196 0 0 0 0 0.721569 0 0 0 0 0.45098 0 0 0 0.5 0"/>
<feBlend mode="normal" in2="BackgroundImageFix" result="effect1_dropShadow_1_11358"/>
<feBlend mode="normal" in="SourceGraphic" in2="effect1_dropShadow_1_11358" result="shape"/>
</filter>
</defs>
</svg>
