<svg width="334" height="95" viewBox="0 0 334 95" fill="none" xmlns="http://www.w3.org/2000/svg">
<g filter="url(#filter0_d_1_11430)">
<rect x="15" y="15.495" width="293.753" height="54.5046" fill="#E3B873"/>
</g>
<path d="M84.3523 48.9804C83.5703 48.9804 82.9016 48.8727 82.3463 48.6574C81.8023 48.4421 81.3886 48.1644 81.1053 47.8244C80.8333 47.4844 80.6973 47.1331 80.6973 46.7704C80.6973 46.3851 80.8106 46.0791 81.0373 45.8524C81.2753 45.6144 81.587 45.4954 81.9723 45.4954C82.063 45.4954 82.1536 45.5067 82.2443 45.5294C82.335 45.5407 82.3973 45.5464 82.4313 45.5464L82.6523 45.5804V48.3004C82.6636 48.3004 82.7826 48.3457 83.0093 48.4364C83.304 48.5157 83.6383 48.5554 84.0123 48.5554C84.6923 48.5554 85.2306 48.2777 85.6273 47.7224C86.024 47.1557 86.2223 46.2717 86.2223 45.0704C86.2223 43.8804 86.0183 43.0191 85.6103 42.4864C85.2023 41.9424 84.613 41.6704 83.8423 41.6704C83.5476 41.6704 83.27 41.7214 83.0093 41.8234C82.7486 41.9254 82.471 42.0614 82.1763 42.2314C81.9383 42.3787 81.7003 42.5601 81.4623 42.7754L81.1223 42.5204L81.8023 36.8254H86.8173C86.8966 36.2134 87.0893 35.7034 87.3953 35.2954C87.52 35.1027 87.6673 34.9327 87.8373 34.7854H88.3473V38.1004H82.1763L81.7173 42.0104C81.876 41.8971 82.1083 41.7724 82.4143 41.6364C83.049 41.3757 83.6383 41.2454 84.1823 41.2454C85.837 41.2454 87.0723 41.5854 87.8883 42.2654C88.7043 42.9341 89.1123 43.8691 89.1123 45.0704C89.1123 46.2944 88.71 47.2521 87.9053 47.9434C87.1006 48.6347 85.9163 48.9804 84.3523 48.9804ZM95.2376 48.9804C93.8096 48.9804 92.6876 48.4704 91.8716 47.4504C91.0556 46.4304 90.6476 44.8721 90.6476 42.7754C90.6476 40.7354 91.0896 39.1941 91.9736 38.1514C92.8689 37.0974 94.0986 36.5704 95.6626 36.5704C96.3313 36.5704 96.9149 36.6837 97.4136 36.9104C97.9236 37.1257 98.3089 37.4034 98.5696 37.7434C98.8416 38.0834 98.9776 38.4291 98.9776 38.7804C98.9776 39.1657 98.8586 39.4774 98.6206 39.7154C98.3939 39.9421 98.0879 40.0554 97.7026 40.0554C97.5439 40.0554 97.3853 40.0441 97.2266 40.0214L97.0226 39.9704V37.2504L96.6996 37.1314C96.4503 37.0407 96.2179 36.9954 96.0026 36.9954C95.4473 36.9954 94.9883 37.1427 94.6256 37.4374C94.2743 37.7321 94.0023 38.2761 93.8096 39.0694C93.6283 39.8627 93.5376 40.9847 93.5376 42.4354C93.6623 42.2427 93.8153 42.0727 93.9966 41.9254C94.4273 41.5854 94.9259 41.4154 95.4926 41.4154C96.3199 41.4154 97.0396 41.5741 97.6516 41.8914C98.2749 42.1974 98.7509 42.6281 99.0796 43.1834C99.4083 43.7387 99.5726 44.3677 99.5726 45.0704C99.5726 46.2831 99.1929 47.2407 98.4336 47.9434C97.6856 48.6347 96.6203 48.9804 95.2376 48.9804ZM95.2376 48.6404C95.4643 48.6404 95.6853 48.5271 95.9006 48.3004C96.1273 48.0737 96.3143 47.7054 96.4616 47.1954C96.6089 46.6854 96.6826 46.0337 96.6826 45.2404C96.6826 44.4471 96.6033 43.7954 96.4446 43.2854C96.2973 42.7754 96.1046 42.4071 95.8666 42.1804C95.6399 41.9537 95.4019 41.8404 95.1526 41.8404C94.6879 41.8404 94.3139 42.0671 94.0306 42.5204C93.7586 42.9737 93.6226 43.6821 93.6226 44.6454C93.6226 46.0847 93.7756 47.1104 94.0816 47.7224C94.3989 48.3344 94.7843 48.6404 95.2376 48.6404ZM107.484 38.9504V47.9604L108.844 48.4704V48.7254H105.614V48.4704L106.974 47.9604V37.3354L105.784 37.0804V36.8254H108.079C108.669 36.8254 109.133 36.9501 109.473 37.1994C109.825 37.4374 110.125 37.7944 110.374 38.2704L114.08 45.3594L116.919 38.2704C117.112 37.7717 117.373 37.4091 117.701 37.1824C118.03 36.9444 118.534 36.8254 119.214 36.8254H120.999V37.0804L119.979 37.3354V48.2154L120.999 48.4704V48.7254H116.154V48.4704L117.174 48.2154V38.9504L113.179 48.8954H112.669L107.484 38.9504ZM122.365 47.9604C122.365 47.2917 122.496 46.6854 122.756 46.1414C123.028 45.5861 123.357 45.1044 123.742 44.6964C124.128 44.2884 124.632 43.8067 125.255 43.2514C125.833 42.7414 126.287 42.3164 126.615 41.9764C126.944 41.6251 127.222 41.2341 127.448 40.8034C127.675 40.3614 127.788 39.8854 127.788 39.3754C127.788 38.6274 127.607 38.0437 127.244 37.6244C126.882 37.2051 126.411 36.9954 125.833 36.9954C125.505 36.9954 125.17 37.0407 124.83 37.1314L124.473 37.2504V39.9704L124.252 40.0214C124.071 40.0441 123.918 40.0554 123.793 40.0554C123.408 40.0554 123.096 39.9421 122.858 39.7154C122.632 39.4774 122.518 39.1657 122.518 38.7804C122.518 38.4177 122.654 38.0664 122.926 37.7264C123.21 37.3864 123.623 37.1087 124.167 36.8934C124.723 36.6781 125.391 36.5704 126.173 36.5704C127.703 36.5704 128.837 36.8764 129.573 37.4884C130.31 38.1004 130.678 38.9561 130.678 40.0554C130.678 40.7467 130.497 41.3417 130.134 41.8404C129.783 42.3391 129.347 42.7527 128.825 43.0814C128.315 43.4101 127.63 43.7841 126.768 44.2034C126.043 44.5547 125.454 44.8664 125 45.1384C124.558 45.3991 124.145 45.7164 123.759 46.0904C123.385 46.4644 123.119 46.8894 122.96 47.3654H129.25C129.33 46.7534 129.522 46.2434 129.828 45.8354C129.953 45.6427 130.1 45.4727 130.27 45.3254H130.78V48.7254H122.365V47.9604Z" fill="white"/>
<path fill-rule="evenodd" clip-rule="evenodd" d="M35.2502 26.9833C35.2502 26.7704 35.4284 26.5978 35.6483 26.5978H64.3116C64.5315 26.5978 64.7097 26.7704 64.7097 26.9833V54.8637C64.7097 55.0766 64.5315 55.2492 64.3116 55.2492C64.0918 55.2492 63.9135 55.0766 63.9135 54.8637V27.3687H35.6483C35.4284 27.3687 35.2502 27.1962 35.2502 26.9833Z" fill="white" stroke="white" stroke-width="0.5" stroke-linecap="round" stroke-linejoin="round"/>
<path d="M33.1276 32.9595L34.7531 31.3188L34.7531 55.3006L34.7531 55.4256L34.8781 55.4256L35.668 55.4256L35.793 55.4256L35.793 55.3006L35.793 31.3188L37.4185 32.9595C37.6216 33.1645 37.9515 33.1645 38.1546 32.9595C38.3571 32.7551 38.3571 32.4242 38.1546 32.2198L35.6411 29.6827C35.4379 29.4777 35.1081 29.4777 34.9049 29.6827L32.3914 32.2198C32.1889 32.4242 32.1889 32.7551 32.3914 32.9595C32.5946 33.1645 32.9244 33.1645 33.1276 32.9595Z" fill="white" stroke="white" stroke-width="0.25"/>
<path d="M58.7624 54.777L34.8771 54.777H34.7521V54.902V55.6993V55.8243H34.8771L58.7624 55.8243L57.1259 57.4676C56.9222 57.672 56.9222 58.0033 57.1259 58.2078C57.3298 58.4125 57.6606 58.4125 57.8645 58.2078L60.3911 55.6707C60.5947 55.4663 60.5947 55.135 60.3911 54.9306L57.8645 52.3935C57.6606 52.1888 57.3298 52.1888 57.1259 52.3935C56.9222 52.598 56.9222 52.9293 57.1259 53.1337L58.7624 54.777Z" fill="white" stroke="white" stroke-width="0.25"/>
<path fill-rule="evenodd" clip-rule="evenodd" d="M46.1625 26.7146C46.3167 26.8703 46.3167 27.1227 46.1625 27.2784L41.423 32.0622C41.2687 32.2179 41.0186 32.2179 40.8644 32.0622C40.7102 31.9065 40.7102 31.6541 40.8644 31.4984L45.6039 26.7146C45.7582 26.5589 46.0083 26.5589 46.1625 26.7146Z" fill="white" stroke="white" stroke-width="0.5" stroke-linecap="round" stroke-linejoin="round"/>
<path fill-rule="evenodd" clip-rule="evenodd" d="M64.4624 45.7171C64.6167 45.8728 64.6167 46.1252 64.4624 46.2809L60.1178 50.6661C59.9636 50.8217 59.7135 50.8217 59.5593 50.6661C59.405 50.5104 59.405 50.258 59.5593 50.1023L63.9039 45.7171C64.0581 45.5614 64.3082 45.5614 64.4624 45.7171Z" fill="white" stroke="white" stroke-width="0.5" stroke-linecap="round" stroke-linejoin="round"/>
<path fill-rule="evenodd" clip-rule="evenodd" d="M52.0851 26.7128C52.2403 26.8675 52.2419 27.1199 52.0886 27.2766L41.8196 37.7744C41.6664 37.9311 41.4163 37.9327 41.2611 37.778C41.1059 37.6233 41.1043 37.3709 41.2575 37.2142L51.5265 26.7164C51.6798 26.5597 51.9298 26.5581 52.0851 26.7128Z" fill="white" stroke="white" stroke-width="0.5" stroke-linecap="round" stroke-linejoin="round"/>
<path fill-rule="evenodd" clip-rule="evenodd" d="M64.594 39.0722C64.7482 39.2279 64.7482 39.4803 64.594 39.636L54.5883 49.7352C54.434 49.8909 54.184 49.8909 54.0297 49.7352C53.8755 49.5795 53.8755 49.3271 54.0297 49.1714L64.0354 39.0722C64.1896 38.9165 64.4397 38.9165 64.594 39.0722Z" fill="white" stroke="white" stroke-width="0.5" stroke-linecap="round" stroke-linejoin="round"/>
<path fill-rule="evenodd" clip-rule="evenodd" d="M58.4085 26.8494C58.5615 27.0063 58.5595 27.2587 58.404 27.4132L41.9473 43.7579C41.7918 43.9123 41.5418 43.9103 41.3888 43.7534C41.2358 43.5964 41.2378 43.344 41.3933 43.1896L57.85 26.8448C58.0055 26.6904 58.2555 26.6925 58.4085 26.8494Z" fill="white" stroke="white" stroke-width="0.5" stroke-linecap="round" stroke-linejoin="round"/>
<path fill-rule="evenodd" clip-rule="evenodd" d="M64.5941 32.827C64.7483 32.9827 64.7483 33.2351 64.5941 33.3907L48.0057 50.1341C47.8515 50.2898 47.6014 50.2898 47.4472 50.1341C47.2929 49.9785 47.2929 49.726 47.4472 49.5704L64.0355 32.827C64.1898 32.6713 64.4399 32.6713 64.5941 32.827Z" fill="white" stroke="white" stroke-width="0.5" stroke-linecap="round" stroke-linejoin="round"/>
<path fill-rule="evenodd" clip-rule="evenodd" d="M64.3308 26.8471C64.485 27.0028 64.485 27.2552 64.3308 27.4109L41.6863 50.267C41.5321 50.4226 41.282 50.4226 41.1278 50.267C40.9735 50.1113 40.9735 49.8589 41.1278 49.7032L63.7722 26.8471C63.9265 26.6914 64.1765 26.6914 64.3308 26.8471Z" fill="white" stroke="white" stroke-width="0.5" stroke-linecap="round" stroke-linejoin="round"/>
<path d="M220.166 49.0499C218.738 49.0499 217.655 48.7665 216.919 48.1999C216.193 47.6332 215.831 46.8965 215.831 45.9899C215.831 45.3665 216.103 44.7659 216.647 44.1879C217.191 43.5985 217.854 43.1792 218.636 42.9299C217.888 42.5105 217.315 42.0515 216.919 41.5529C216.533 41.0429 216.341 40.4252 216.341 39.6999C216.341 38.7932 216.703 38.0565 217.429 37.4899C218.165 36.9232 219.248 36.6399 220.676 36.6399C221.39 36.6399 222.013 36.7702 222.546 37.0309C223.09 37.2915 223.509 37.6315 223.804 38.0509C224.098 38.4702 224.246 38.9065 224.246 39.3599C224.246 39.8925 224.013 40.4082 223.549 40.9069C223.095 41.4055 222.563 41.7399 221.951 41.9099C222.982 42.3632 223.764 42.9015 224.297 43.5249C224.829 44.1482 225.096 44.9132 225.096 45.8199C225.096 46.4092 224.914 46.9475 224.552 47.4349C224.189 47.9222 223.639 48.3132 222.903 48.6079C222.166 48.9025 221.254 49.0499 220.166 49.0499ZM221.441 41.5699C221.871 41.3772 222.217 41.0995 222.478 40.7369C222.75 40.3742 222.886 39.9152 222.886 39.3599C222.886 38.9519 222.784 38.5722 222.58 38.2209C222.387 37.8695 222.132 37.5919 221.815 37.3879C221.509 37.1725 221.186 37.0649 220.846 37.0649C220.358 37.0649 219.95 37.2575 219.622 37.6429C219.304 38.0169 219.146 38.5325 219.146 39.1899C219.146 40.0965 219.911 40.8899 221.441 41.5699ZM219.996 48.6249C220.721 48.6249 221.282 48.4265 221.679 48.0299C222.087 47.6219 222.291 47.0552 222.291 46.3299C222.291 45.7859 222.019 45.2362 221.475 44.6809C220.931 44.1255 220.211 43.6552 219.316 43.2699C218.681 43.4965 218.182 43.8365 217.82 44.2899C217.457 44.7319 217.276 45.2985 217.276 45.9899C217.276 46.4659 217.395 46.9079 217.633 47.3159C217.882 47.7125 218.211 48.0299 218.619 48.2679C219.038 48.5059 219.497 48.6249 219.996 48.6249ZM230.717 49.0499C229.289 49.0499 228.167 48.5399 227.351 47.5199C226.535 46.4999 226.127 44.9415 226.127 42.8449C226.127 40.8049 226.569 39.2635 227.453 38.2209C228.349 37.1669 229.578 36.6399 231.142 36.6399C231.811 36.6399 232.395 36.7532 232.893 36.9799C233.403 37.1952 233.789 37.4729 234.049 37.8129C234.321 38.1529 234.457 38.4985 234.457 38.8499C234.457 39.2352 234.338 39.5469 234.1 39.7849C233.874 40.0115 233.568 40.1249 233.182 40.1249C233.024 40.1249 232.865 40.1135 232.706 40.0909L232.502 40.0399V37.3199L232.179 37.2009C231.93 37.1102 231.698 37.0649 231.482 37.0649C230.927 37.0649 230.468 37.2122 230.105 37.5069C229.754 37.8015 229.482 38.3455 229.289 39.1389C229.108 39.9322 229.017 41.0542 229.017 42.5049C229.142 42.3122 229.295 42.1422 229.476 41.9949C229.907 41.6549 230.406 41.4849 230.972 41.4849C231.8 41.4849 232.519 41.6435 233.131 41.9609C233.755 42.2669 234.231 42.6975 234.559 43.2529C234.888 43.8082 235.052 44.4372 235.052 45.1399C235.052 46.3525 234.673 47.3102 233.913 48.0129C233.165 48.7042 232.1 49.0499 230.717 49.0499ZM230.717 48.7099C230.944 48.7099 231.165 48.5965 231.38 48.3699C231.607 48.1432 231.794 47.7749 231.941 47.2649C232.089 46.7549 232.162 46.1032 232.162 45.3099C232.162 44.5165 232.083 43.8649 231.924 43.3549C231.777 42.8449 231.584 42.4765 231.346 42.2499C231.12 42.0232 230.882 41.9099 230.632 41.9099C230.168 41.9099 229.794 42.1365 229.51 42.5899C229.238 43.0432 229.102 43.7515 229.102 44.7149C229.102 46.1542 229.255 47.1799 229.561 47.7919C229.879 48.4039 230.264 48.7099 230.717 48.7099ZM241.434 48.5399L242.454 48.2849V37.4049L241.434 37.1499V36.8949H245.769C247.798 36.8949 249.35 37.4162 250.427 38.4589C251.515 39.5015 252.059 40.9635 252.059 42.8449C252.059 44.7262 251.515 46.1882 250.427 47.2309C249.35 48.2735 247.798 48.7949 245.769 48.7949H241.434V48.5399ZM245.769 48.3699C246.823 48.3699 247.639 47.9449 248.217 47.0949C248.795 46.2335 249.084 44.8169 249.084 42.8449C249.084 40.8729 248.795 39.4619 248.217 38.6119C247.639 37.7505 246.823 37.3199 245.769 37.3199H245.259V48.3699H245.769ZM251.882 48.5399L253.242 48.0299L257.917 36.7249H258.427L263.272 48.2849L264.122 48.5399V48.7949H262.082C261.492 48.7949 261.011 48.6645 260.637 48.4039C260.263 48.1319 259.985 47.7805 259.804 47.3499L258.937 45.3099H254.874L253.752 48.0299L255.027 48.5399V48.7949H251.882V48.5399ZM255.044 44.8849H258.767L256.897 40.4139L255.044 44.8849ZM265.896 48.5399L266.916 48.2849V44.3749L263.431 37.4049L262.581 37.1499V36.8949H264.706C265.296 36.8949 265.766 37.0195 266.117 37.2689C266.48 37.5182 266.775 37.8752 267.001 38.3399L269.517 43.3549L272.101 37.6599L270.826 37.1499V36.8949H274.056V37.1499L272.696 37.6599L269.721 44.2049V48.2849L270.741 48.5399V48.7949H265.896V48.5399ZM278.387 49.0499C277.583 49.0499 276.829 48.8685 276.126 48.5059C275.809 48.3472 275.543 48.1602 275.327 47.9449C275.169 48.2055 274.97 48.4379 274.732 48.6419C274.528 48.7892 274.415 48.8685 274.392 48.8799H273.967V45.6499H274.647C274.817 46.2052 275.055 46.7039 275.361 47.1459C276.053 48.1319 276.948 48.6249 278.047 48.6249C278.693 48.6249 279.209 48.4322 279.594 48.0469C279.98 47.6615 280.172 47.1459 280.172 46.4999C280.172 46.1259 280.059 45.7915 279.832 45.4969C279.617 45.2022 279.345 44.9415 279.016 44.7149C278.688 44.4882 278.229 44.2049 277.639 43.8649C276.891 43.4455 276.285 43.0659 275.82 42.7259C275.356 42.3859 274.959 41.9609 274.63 41.4509C274.302 40.9295 274.137 40.3175 274.137 39.6149C274.137 39.0595 274.29 38.5609 274.596 38.1189C274.914 37.6655 275.384 37.3085 276.007 37.0479C276.631 36.7759 277.396 36.6399 278.302 36.6399C278.96 36.6399 279.617 36.8269 280.274 37.2009C280.524 37.3369 280.773 37.5182 281.022 37.7449C281.215 37.4502 281.413 37.2179 281.617 37.0479C281.821 36.9005 281.935 36.8212 281.957 36.8099H282.382V40.0399H281.702C281.555 39.4959 281.334 39.0029 281.039 38.5609C280.767 38.1302 280.427 37.7732 280.019 37.4899C279.623 37.2065 279.164 37.0649 278.642 37.0649C278.2 37.0649 277.821 37.2405 277.503 37.5919C277.186 37.9432 277.027 38.3909 277.027 38.9349C277.027 39.3542 277.146 39.7339 277.384 40.0739C277.634 40.4025 277.934 40.6915 278.285 40.9409C278.648 41.1902 279.135 41.4905 279.747 41.8419C280.461 42.2499 281.039 42.6125 281.481 42.9299C281.923 43.2472 282.297 43.6439 282.603 44.1199C282.909 44.5845 283.062 45.1229 283.062 45.7349C283.062 46.3469 282.887 46.9079 282.535 47.4179C282.184 47.9165 281.657 48.3132 280.954 48.6079C280.252 48.9025 279.396 49.0499 278.387 49.0499Z" fill="white"/>
<path d="M150.09 70.0349L150.09 15.495" stroke="white" stroke-width="0.75"/>
<path d="M191.6 28.8181C191.337 27.5531 190.196 26.5978 188.831 26.5978C188.519 26.5978 188.266 26.8459 188.266 27.1529C188.266 27.4598 188.519 27.7079 188.831 27.7079C189.766 27.7079 190.527 28.4551 190.527 29.3731C190.527 30.2912 189.766 31.0383 188.831 31.0383C188.519 31.0383 188.266 31.2864 188.266 31.5933C188.266 31.9003 188.519 32.1484 188.831 32.1484C190.196 32.1484 191.337 31.1931 191.6 29.9282H199.005V34.9237H168.484V29.9282H176.397H178.093C178.405 29.9282 178.658 29.6801 178.658 29.3731C178.658 29.0662 178.405 28.8181 178.093 28.8181H177.066C177.3 28.1731 177.922 27.7079 178.658 27.7079C179.593 27.7079 180.353 28.4551 180.353 29.3731C180.353 30.2912 179.593 31.0383 178.658 31.0383C178.346 31.0383 178.093 31.2864 178.093 31.5933C178.093 31.9003 178.346 32.1484 178.658 32.1484C180.216 32.1484 181.484 30.9034 181.484 29.3731C181.484 27.8428 180.216 26.5978 178.658 26.5978C177.294 26.5978 176.152 27.5531 175.889 28.8181H167.354V36.0338V58.236H200.135V36.0338V28.8181H191.6ZM199.005 57.1259H168.484V36.0338H199.005V57.1259Z" fill="white"/>
<path d="M182.049 27.7079C182.984 27.7079 183.745 28.4551 183.745 29.3731C183.745 30.2912 182.984 31.0383 182.049 31.0383C181.737 31.0383 181.484 31.2864 181.484 31.5933C181.484 31.9003 181.737 32.1484 182.049 32.1484C183.607 32.1484 184.875 30.9034 184.875 29.3731C184.875 27.8428 183.607 26.5978 182.049 26.5978C181.737 26.5978 181.484 26.8459 181.484 27.1529C181.484 27.4598 181.737 27.7079 182.049 27.7079Z" fill="white"/>
<path d="M185.44 27.7079C186.375 27.7079 187.136 28.4551 187.136 29.3731C187.136 30.2912 186.375 31.0383 185.44 31.0383C185.128 31.0383 184.875 31.2864 184.875 31.5933C184.875 31.9003 185.128 32.1484 185.44 32.1484C186.998 32.1484 188.266 30.9034 188.266 29.3731C188.266 27.8428 186.998 26.5978 185.44 26.5978C185.128 26.5978 184.875 26.8459 184.875 27.1529C184.875 27.4598 185.128 27.7079 185.44 27.7079Z" fill="white"/>
<path d="M172.441 40.4738H184.875C185.187 40.4738 185.44 40.2256 185.44 39.9187C185.44 39.6118 185.187 39.3636 184.875 39.3636H172.441C172.129 39.3636 171.876 39.6118 171.876 39.9187C171.876 40.2256 172.129 40.4738 172.441 40.4738Z" fill="white"/>
<path d="M195.048 48.2449H186.571C186.259 48.2449 186.005 48.493 186.005 48.8C186.005 49.1069 186.259 49.355 186.571 49.355H195.048C195.36 49.355 195.614 49.1069 195.614 48.8C195.614 48.493 195.36 48.2449 195.048 48.2449Z" fill="white"/>
<path d="M172.441 44.9152H178.093C178.405 44.9152 178.658 44.6671 178.658 44.3601C178.658 44.0532 178.405 43.8051 178.093 43.8051H172.441C172.129 43.8051 171.876 44.0532 171.876 44.3601C171.876 44.6671 172.129 44.9152 172.441 44.9152Z" fill="white"/>
<path d="M195.048 52.6857H189.397C189.085 52.6857 188.831 52.9338 188.831 53.2408C188.831 53.5477 189.085 53.7958 189.397 53.7958H195.048C195.36 53.7958 195.614 53.5477 195.614 53.2408C195.614 52.9338 195.36 52.6857 195.048 52.6857Z" fill="white"/>
<path d="M183.179 44.3601C183.179 44.6671 183.433 44.9152 183.745 44.9152H192.223C192.534 44.9152 192.788 44.6671 192.788 44.3601C192.788 44.0532 192.534 43.8051 192.223 43.8051H183.745C183.433 43.8051 183.179 44.0532 183.179 44.3601Z" fill="white"/>
<path d="M181.32 44.7539C181.422 44.6485 181.484 44.5041 181.484 44.3598C181.484 44.215 181.422 44.0706 181.32 43.9657C181.111 43.7604 180.727 43.7604 180.517 43.9657C180.416 44.0706 180.353 44.215 180.353 44.3598C180.353 44.5041 180.416 44.6485 180.517 44.7539C180.625 44.8588 180.772 44.9149 180.919 44.9149C181.066 44.9149 181.213 44.8588 181.32 44.7539Z" fill="white"/>
<path d="M174.702 48.8C174.702 49.1069 174.955 49.355 175.267 49.355H183.745C184.057 49.355 184.31 49.1069 184.31 48.8C184.31 48.493 184.057 48.2449 183.745 48.2449H175.267C174.955 48.2449 174.702 48.493 174.702 48.8Z" fill="white"/>
<path d="M172.441 49.355C172.588 49.355 172.735 49.2939 172.842 49.194C172.944 49.0886 173.006 48.9442 173.006 48.7999C173.006 48.6551 172.944 48.5107 172.842 48.4114C172.633 48.2005 172.249 48.2005 172.04 48.4058C171.938 48.5108 171.876 48.6551 171.876 48.7999C171.876 48.9442 171.938 49.0886 172.04 49.194C172.147 49.2939 172.288 49.355 172.441 49.355Z" fill="white"/>
<path d="M195.048 44.9149C195.195 44.9149 195.342 44.8588 195.45 44.7539C195.557 44.6485 195.614 44.5041 195.614 44.3598C195.614 44.215 195.557 44.0706 195.45 43.9657C195.235 43.7604 194.856 43.7604 194.647 43.9657C194.545 44.0706 194.483 44.215 194.483 44.3598C194.483 44.5041 194.545 44.6485 194.647 44.7539C194.755 44.8588 194.902 44.9149 195.048 44.9149Z" fill="white"/>
<path d="M186.571 52.6857H172.441C172.129 52.6857 171.876 52.9338 171.876 53.2408C171.876 53.5477 172.129 53.7958 172.441 53.7958H186.571C186.883 53.7958 187.136 53.5477 187.136 53.2408C187.136 52.9338 186.883 52.6857 186.571 52.6857Z" fill="white"/>
<defs>
<filter id="filter0_d_1_11430" x="0" y="0.494995" width="333.753" height="94.5046" filterUnits="userSpaceOnUse" color-interpolation-filters="sRGB">
<feFlood flood-opacity="0" result="BackgroundImageFix"/>
<feColorMatrix in="SourceAlpha" type="matrix" values="0 0 0 0 0 0 0 0 0 0 0 0 0 0 0 0 0 0 127 0" result="hardAlpha"/>
<feOffset dx="5" dy="5"/>
<feGaussianBlur stdDeviation="10"/>
<feColorMatrix type="matrix" values="0 0 0 0 0.890196 0 0 0 0 0.721569 0 0 0 0 0.45098 0 0 0 0.5 0"/>
<feBlend mode="normal" in2="BackgroundImageFix" result="effect1_dropShadow_1_11430"/>
<feBlend mode="normal" in="SourceGraphic" in2="effect1_dropShadow_1_11430" result="shape"/>
</filter>
</defs>
</svg>
