<svg width="334" height="95" viewBox="0 0 334 95" fill="none" xmlns="http://www.w3.org/2000/svg">
<g filter="url(#filter0_d_1_11286)">
<rect x="15" y="15.495" width="293.753" height="54.5046" fill="#E3B873"/>
</g>
<path d="M84.0973 48.7249V48.4699L85.2873 48.1299V45.5799H80.4423L80.1023 45.0699L86.4773 36.6549H88.0923V44.8149H89.8773V45.5799H88.0923V48.1299L89.2823 48.4699V48.7249H84.0973ZM81.0373 44.8149H85.2873V39.2049L81.0373 44.8149ZM95.6586 48.9799C94.7406 48.9799 93.9076 48.7362 93.1596 48.2489C92.4116 47.7615 91.8166 47.0532 91.3746 46.1239C90.944 45.1832 90.7286 44.0669 90.7286 42.7749C90.7286 41.4829 90.944 40.3722 91.3746 39.4429C91.8166 38.5022 92.4116 37.7882 93.1596 37.3009C93.9076 36.8135 94.7406 36.5699 95.6586 36.5699C96.5766 36.5699 97.4096 36.8135 98.1576 37.3009C98.9056 37.7882 99.495 38.5022 99.9256 39.4429C100.368 40.3722 100.589 41.4829 100.589 42.7749C100.589 44.0669 100.368 45.1832 99.9256 46.1239C99.495 47.0532 98.9056 47.7615 98.1576 48.2489C97.4096 48.7362 96.5766 48.9799 95.6586 48.9799ZM95.6586 48.6399C96.962 48.6399 97.6136 46.6849 97.6136 42.7749C97.6136 38.8649 96.962 36.9099 95.6586 36.9099C94.3553 36.9099 93.7036 38.8649 93.7036 42.7749C93.7036 46.6849 94.3553 48.6399 95.6586 48.6399ZM108.497 38.9499V47.9599L109.857 48.4699V48.7249H106.627V48.4699L107.987 47.9599V37.3349L106.967 37.0799V36.8249H109.092C109.681 36.8249 110.146 36.9495 110.486 37.1989C110.837 37.4369 111.138 37.7939 111.387 38.2699L115.093 45.3589L117.932 38.2699C118.125 37.7712 118.385 37.4085 118.714 37.1819C119.043 36.9439 119.547 36.8249 120.227 36.8249H122.012V37.0799L120.992 37.3349V48.2149L122.012 48.4699V48.7249H117.167V48.4699L118.187 48.2149V38.9499L114.192 48.8949H113.682L108.497 38.9499ZM123.378 47.9599C123.378 47.2912 123.508 46.6849 123.769 46.1409C124.041 45.5855 124.37 45.1039 124.755 44.6959C125.14 44.2879 125.645 43.8062 126.268 43.2509C126.846 42.7409 127.299 42.3159 127.628 41.9759C127.957 41.6245 128.234 41.2335 128.461 40.8029C128.688 40.3609 128.801 39.8849 128.801 39.3749C128.801 38.6269 128.62 38.0432 128.257 37.6239C127.894 37.2045 127.424 36.9949 126.846 36.9949C126.517 36.9949 126.183 37.0402 125.843 37.1309L125.486 37.2499V39.9699L125.265 40.0209C125.084 40.0435 124.931 40.0549 124.806 40.0549C124.421 40.0549 124.109 39.9415 123.871 39.7149C123.644 39.4769 123.531 39.1652 123.531 38.7799C123.531 38.4172 123.667 38.0659 123.939 37.7259C124.222 37.3859 124.636 37.1082 125.18 36.8929C125.735 36.6775 126.404 36.5699 127.186 36.5699C128.716 36.5699 129.849 36.8759 130.586 37.4879C131.323 38.0999 131.691 38.9555 131.691 40.0549C131.691 40.7462 131.51 41.3412 131.147 41.8399C130.796 42.3385 130.359 42.7522 129.838 43.0809C129.328 43.4095 128.642 43.7835 127.781 44.2029C127.056 44.5542 126.466 44.8659 126.013 45.1379C125.571 45.3985 125.157 45.7159 124.772 46.0899C124.398 46.4639 124.132 46.8889 123.973 47.3649H130.263C130.342 46.7529 130.535 46.2429 130.841 45.8349C130.966 45.6422 131.113 45.4722 131.283 45.3249H131.793V48.7249H123.378V47.9599Z" fill="white"/>
<path fill-rule="evenodd" clip-rule="evenodd" d="M35.2503 26.9833C35.2503 26.7704 35.4285 26.5978 35.6484 26.5978H64.3115C64.5314 26.5978 64.7096 26.7704 64.7096 26.9833V54.8635C64.7096 55.0764 64.5314 55.2489 64.3115 55.2489C64.0916 55.2489 63.9134 55.0764 63.9134 54.8635V27.3687H35.6484C35.4285 27.3687 35.2503 27.1962 35.2503 26.9833Z" fill="white" stroke="white" stroke-width="0.5" stroke-linecap="round" stroke-linejoin="round"/>
<path d="M33.1277 32.9599L34.7532 31.3193L34.7532 55.3008L34.7532 55.4258L34.8782 55.4258L35.6681 55.4258L35.7931 55.4258L35.7931 55.3008L35.7931 31.3193L37.4186 32.9599C37.6217 33.165 37.9516 33.165 38.1547 32.9599C38.3572 32.7555 38.3572 32.4246 38.1547 32.2202L35.6412 29.6832C35.4381 29.4782 35.1082 29.4782 34.9051 29.6832L32.3916 32.2202C32.1891 32.4246 32.1891 32.7555 32.3916 32.9599C32.5947 33.165 32.9246 33.165 33.1277 32.9599Z" fill="white" stroke="white" stroke-width="0.25"/>
<path d="M34.7522 55.6987V55.8237H34.8772L58.7623 55.8237L57.1258 57.467C56.9221 57.6714 56.9221 58.0027 57.1258 58.2072C57.3297 58.4119 57.6605 58.4119 57.8644 58.2072L60.391 55.6702C60.5946 55.4657 60.5946 55.1344 60.391 54.93L57.8644 52.393C57.6605 52.1883 57.3297 52.1883 57.1258 52.393C56.9221 52.5975 56.9221 52.9287 57.1258 53.1332L58.7623 54.7764L34.8772 54.7764H34.7522V54.9014V55.6987Z" fill="white" stroke="white" stroke-width="0.25"/>
<path fill-rule="evenodd" clip-rule="evenodd" d="M46.1624 26.7146C46.3167 26.8703 46.3167 27.1227 46.1624 27.2784L41.423 32.0622C41.2687 32.2178 41.0186 32.2178 40.8644 32.0622C40.7102 31.9065 40.7102 31.6541 40.8644 31.4984L45.6039 26.7146C45.7581 26.5589 46.0082 26.5589 46.1624 26.7146Z" fill="white" stroke="white" stroke-width="0.5" stroke-linecap="round" stroke-linejoin="round"/>
<path fill-rule="evenodd" clip-rule="evenodd" d="M64.4623 45.7172C64.6165 45.8728 64.6165 46.1253 64.4623 46.2809L60.1177 50.6661C59.9635 50.8218 59.7134 50.8218 59.5592 50.6661C59.4049 50.5104 59.4049 50.258 59.5592 50.1023L63.9037 45.7172C64.0579 45.5615 64.308 45.5615 64.4623 45.7172Z" fill="white" stroke="white" stroke-width="0.5" stroke-linecap="round" stroke-linejoin="round"/>
<path fill-rule="evenodd" clip-rule="evenodd" d="M52.0851 26.7128C52.2403 26.8675 52.2419 27.1199 52.0886 27.2766L41.8197 37.7743C41.6665 37.931 41.4164 37.9326 41.2612 37.7779C41.106 37.6232 41.1044 37.3708 41.2576 37.2142L51.5265 26.7164C51.6798 26.5597 51.9299 26.5581 52.0851 26.7128Z" fill="white" stroke="white" stroke-width="0.5" stroke-linecap="round" stroke-linejoin="round"/>
<path fill-rule="evenodd" clip-rule="evenodd" d="M64.5938 39.0724C64.7481 39.2281 64.7481 39.4805 64.5938 39.6362L54.5882 49.7353C54.434 49.891 54.1839 49.891 54.0297 49.7353C53.8754 49.5796 53.8754 49.3272 54.0297 49.1715L64.0353 39.0724C64.1895 38.9168 64.4396 38.9168 64.5938 39.0724Z" fill="white" stroke="white" stroke-width="0.5" stroke-linecap="round" stroke-linejoin="round"/>
<path fill-rule="evenodd" clip-rule="evenodd" d="M58.4084 26.8498C58.5614 27.0067 58.5594 27.2591 58.4039 27.4135L41.9474 43.7581C41.7919 43.9125 41.5418 43.9105 41.3888 43.7536C41.2358 43.5966 41.2379 43.3442 41.3933 43.1898L57.8499 26.8452C58.0054 26.6908 58.2554 26.6928 58.4084 26.8498Z" fill="white" stroke="white" stroke-width="0.5" stroke-linecap="round" stroke-linejoin="round"/>
<path fill-rule="evenodd" clip-rule="evenodd" d="M64.5939 32.8273C64.7482 32.983 64.7482 33.2354 64.5939 33.391L48.0057 50.1343C47.8515 50.29 47.6014 50.29 47.4472 50.1343C47.2929 49.9786 47.2929 49.7262 47.4472 49.5705L64.0354 32.8273C64.1896 32.6716 64.4397 32.6716 64.5939 32.8273Z" fill="white" stroke="white" stroke-width="0.5" stroke-linecap="round" stroke-linejoin="round"/>
<path fill-rule="evenodd" clip-rule="evenodd" d="M64.3306 26.8475C64.4849 27.0032 64.4849 27.2556 64.3306 27.4112L41.6864 50.2671C41.5321 50.4228 41.2821 50.4228 41.1278 50.2671C40.9736 50.1114 40.9736 49.859 41.1278 49.7033L63.7721 26.8475C63.9263 26.6918 64.1764 26.6918 64.3306 26.8475Z" fill="white" stroke="white" stroke-width="0.5" stroke-linecap="round" stroke-linejoin="round"/>
<path d="M219.146 48.7939V48.5389L220.336 48.1989V45.6489H215.491L215.151 45.1389L221.526 36.7239H223.141V44.8839H224.926V45.6489H223.141V48.1989L224.331 48.5389V48.7939H219.146ZM216.086 44.8839H220.336V39.2739L216.086 44.8839ZM230.691 49.0489C229.263 49.0489 228.181 48.7656 227.444 48.1989C226.719 47.6322 226.356 46.8956 226.356 45.9889C226.356 45.3656 226.628 44.7649 227.172 44.1869C227.716 43.5976 228.379 43.1782 229.161 42.9289C228.413 42.5096 227.841 42.0506 227.444 41.5519C227.059 41.0419 226.866 40.4242 226.866 39.6989C226.866 38.7922 227.229 38.0556 227.954 37.4889C228.691 36.9222 229.773 36.6389 231.201 36.6389C231.915 36.6389 232.538 36.7692 233.071 37.0299C233.615 37.2906 234.034 37.6306 234.329 38.0499C234.624 38.4692 234.771 38.9056 234.771 39.3589C234.771 39.8916 234.539 40.4072 234.074 40.9059C233.621 41.4046 233.088 41.7389 232.476 41.9089C233.507 42.3622 234.289 42.9006 234.822 43.5239C235.355 44.1472 235.621 44.9122 235.621 45.8189C235.621 46.4082 235.44 46.9466 235.077 47.4339C234.714 47.9212 234.165 48.3122 233.428 48.6069C232.691 48.9016 231.779 49.0489 230.691 49.0489ZM231.966 41.5689C232.397 41.3762 232.742 41.0986 233.003 40.7359C233.275 40.3732 233.411 39.9142 233.411 39.3589C233.411 38.9509 233.309 38.5712 233.105 38.2199C232.912 37.8686 232.657 37.5909 232.34 37.3869C232.034 37.1716 231.711 37.0639 231.371 37.0639C230.884 37.0639 230.476 37.2566 230.147 37.6419C229.83 38.0159 229.671 38.5316 229.671 39.1889C229.671 40.0956 230.436 40.8889 231.966 41.5689ZM230.521 48.6239C231.246 48.6239 231.807 48.4256 232.204 48.0289C232.612 47.6209 232.816 47.0542 232.816 46.3289C232.816 45.7849 232.544 45.2352 232 44.6799C231.456 44.1246 230.736 43.6542 229.841 43.2689C229.206 43.4956 228.708 43.8356 228.345 44.2889C227.982 44.7309 227.801 45.2976 227.801 45.9889C227.801 46.4649 227.92 46.9069 228.158 47.3149C228.407 47.7116 228.736 48.0289 229.144 48.2669C229.563 48.5049 230.022 48.6239 230.521 48.6239ZM241.75 48.5389L242.77 48.2839V37.4039L241.75 37.1489V36.8939H246.085C248.113 36.8939 249.666 37.4152 250.743 38.4579C251.831 39.5006 252.375 40.9626 252.375 42.8439C252.375 44.7252 251.831 46.1872 250.743 47.2299C249.666 48.2726 248.113 48.7939 246.085 48.7939H241.75V48.5389ZM246.085 48.3689C247.139 48.3689 247.955 47.9439 248.533 47.0939C249.111 46.2326 249.4 44.8159 249.4 42.8439C249.4 40.8719 249.111 39.4609 248.533 38.6109C247.955 37.7496 247.139 37.3189 246.085 37.3189H245.575V48.3689H246.085ZM252.197 48.5389L253.557 48.0289L258.232 36.7239H258.742L263.587 48.2839L264.437 48.5389V48.7939H262.397C261.808 48.7939 261.326 48.6636 260.952 48.4029C260.578 48.1309 260.301 47.7796 260.119 47.3489L259.252 45.3089H255.189L254.067 48.0289L255.342 48.5389V48.7939H252.197V48.5389ZM255.359 44.8839H259.082L257.212 40.4129L255.359 44.8839ZM266.212 48.5389L267.232 48.2839V44.3739L263.747 37.4039L262.897 37.1489V36.8939H265.022C265.611 36.8939 266.081 37.0186 266.433 37.2679C266.795 37.5172 267.09 37.8742 267.317 38.3389L269.833 43.3539L272.417 37.6589L271.142 37.1489V36.8939H274.372V37.1489L273.012 37.6589L270.037 44.2039V48.2839L271.057 48.5389V48.7939H266.212V48.5389ZM278.703 49.0489C277.898 49.0489 277.144 48.8676 276.442 48.5049C276.124 48.3462 275.858 48.1592 275.643 47.9439C275.484 48.2046 275.286 48.4369 275.048 48.6409C274.844 48.7882 274.73 48.8676 274.708 48.8789H274.283V45.6489H274.963C275.133 46.2042 275.371 46.7029 275.677 47.1449C276.368 48.1309 277.263 48.6239 278.363 48.6239C279.009 48.6239 279.524 48.4312 279.91 48.0459C280.295 47.6606 280.488 47.1449 280.488 46.4989C280.488 46.1249 280.374 45.7906 280.148 45.4959C279.932 45.2012 279.66 44.9406 279.332 44.7139C279.003 44.4872 278.544 44.2039 277.955 43.8639C277.207 43.4446 276.6 43.0649 276.136 42.7249C275.671 42.3849 275.274 41.9599 274.946 41.4499C274.617 40.9286 274.453 40.3166 274.453 39.6139C274.453 39.0586 274.606 38.5599 274.912 38.1179C275.229 37.6646 275.699 37.3076 276.323 37.0469C276.946 36.7749 277.711 36.6389 278.618 36.6389C279.275 36.6389 279.932 36.8259 280.59 37.1999C280.839 37.3359 281.088 37.5172 281.338 37.7439C281.53 37.4492 281.729 37.2169 281.933 37.0469C282.137 36.8996 282.25 36.8202 282.273 36.8089H282.698V40.0389H282.018C281.87 39.4949 281.649 39.0019 281.355 38.5599C281.083 38.1292 280.743 37.7722 280.335 37.4889C279.938 37.2056 279.479 37.0639 278.958 37.0639C278.516 37.0639 278.136 37.2396 277.819 37.5909C277.501 37.9422 277.343 38.3899 277.343 38.9339C277.343 39.3532 277.462 39.7329 277.7 40.0729C277.949 40.4016 278.249 40.6906 278.601 40.9399C278.963 41.1892 279.451 41.4896 280.063 41.8409C280.777 42.2489 281.355 42.6116 281.797 42.9289C282.239 43.2462 282.613 43.6429 282.919 44.1189C283.225 44.5836 283.378 45.1219 283.378 45.7339C283.378 46.3459 283.202 46.9069 282.851 47.4169C282.499 47.9156 281.972 48.3122 281.27 48.6069C280.567 48.9016 279.711 49.0489 278.703 49.0489Z" fill="white"/>
<path d="M150.09 70.0349L150.09 15.495" stroke="white" stroke-width="0.75"/>
<path d="M191.6 28.8181C191.337 27.5531 190.196 26.5978 188.831 26.5978C188.519 26.5978 188.266 26.8459 188.266 27.1529C188.266 27.4598 188.519 27.7079 188.831 27.7079C189.766 27.7079 190.527 28.4551 190.527 29.3731C190.527 30.2912 189.766 31.0383 188.831 31.0383C188.519 31.0383 188.266 31.2864 188.266 31.5933C188.266 31.9003 188.519 32.1484 188.831 32.1484C190.196 32.1484 191.337 31.1931 191.6 29.9282H199.005V34.9237H168.484V29.9282H176.397H178.093C178.405 29.9282 178.658 29.6801 178.658 29.3731C178.658 29.0662 178.405 28.8181 178.093 28.8181H177.066C177.3 28.1731 177.922 27.7079 178.658 27.7079C179.593 27.7079 180.353 28.4551 180.353 29.3731C180.353 30.2912 179.593 31.0383 178.658 31.0383C178.346 31.0383 178.093 31.2864 178.093 31.5933C178.093 31.9003 178.346 32.1484 178.658 32.1484C180.216 32.1484 181.484 30.9034 181.484 29.3731C181.484 27.8428 180.216 26.5978 178.658 26.5978C177.293 26.5978 176.152 27.5531 175.889 28.8181H167.354V36.0338V58.236H200.135V36.0338V28.8181H191.6ZM199.005 57.1259H168.484V36.0338H199.005V57.1259Z" fill="white"/>
<path d="M182.049 27.7079C182.984 27.7079 183.745 28.4551 183.745 29.3731C183.745 30.2912 182.984 31.0383 182.049 31.0383C181.737 31.0383 181.484 31.2864 181.484 31.5933C181.484 31.9003 181.737 32.1484 182.049 32.1484C183.607 32.1484 184.875 30.9034 184.875 29.3731C184.875 27.8428 183.607 26.5978 182.049 26.5978C181.737 26.5978 181.484 26.8459 181.484 27.1529C181.484 27.4598 181.737 27.7079 182.049 27.7079Z" fill="white"/>
<path d="M185.44 27.7079C186.375 27.7079 187.136 28.4551 187.136 29.3731C187.136 30.2912 186.375 31.0383 185.44 31.0383C185.128 31.0383 184.875 31.2864 184.875 31.5933C184.875 31.9003 185.128 32.1484 185.44 32.1484C186.998 32.1484 188.266 30.9034 188.266 29.3731C188.266 27.8428 186.998 26.5978 185.44 26.5978C185.128 26.5978 184.875 26.8459 184.875 27.1529C184.875 27.4598 185.128 27.7079 185.44 27.7079Z" fill="white"/>
<path d="M172.441 40.4738H184.875C185.187 40.4738 185.44 40.2256 185.44 39.9187C185.44 39.6118 185.187 39.3636 184.875 39.3636H172.441C172.129 39.3636 171.876 39.6118 171.876 39.9187C171.876 40.2256 172.129 40.4738 172.441 40.4738Z" fill="white"/>
<path d="M195.048 48.2449H186.571C186.259 48.2449 186.005 48.493 186.005 48.8C186.005 49.1069 186.259 49.355 186.571 49.355H195.048C195.36 49.355 195.614 49.1069 195.614 48.8C195.614 48.493 195.36 48.2449 195.048 48.2449Z" fill="white"/>
<path d="M172.441 44.9147H178.093C178.405 44.9147 178.658 44.6666 178.658 44.3596C178.658 44.0527 178.405 43.8046 178.093 43.8046H172.441C172.129 43.8046 171.876 44.0527 171.876 44.3596C171.876 44.6666 172.129 44.9147 172.441 44.9147Z" fill="white"/>
<path d="M195.048 52.6852H189.397C189.085 52.6852 188.831 52.9334 188.831 53.2403C188.831 53.5472 189.085 53.7954 189.397 53.7954H195.048C195.36 53.7954 195.614 53.5472 195.614 53.2403C195.614 52.9334 195.36 52.6852 195.048 52.6852Z" fill="white"/>
<path d="M183.179 44.3596C183.179 44.6666 183.433 44.9147 183.745 44.9147H192.222C192.534 44.9147 192.788 44.6666 192.788 44.3596C192.788 44.0527 192.534 43.8046 192.222 43.8046H183.745C183.433 43.8046 183.179 44.0527 183.179 44.3596Z" fill="white"/>
<path d="M181.32 44.7539C181.422 44.6485 181.484 44.5041 181.484 44.3598C181.484 44.215 181.422 44.0706 181.32 43.9657C181.111 43.7604 180.727 43.7604 180.517 43.9657C180.416 44.0706 180.354 44.215 180.354 44.3598C180.354 44.5041 180.416 44.6485 180.517 44.7539C180.625 44.8588 180.772 44.9149 180.919 44.9149C181.066 44.9149 181.213 44.8588 181.32 44.7539Z" fill="white"/>
<path d="M174.702 48.8C174.702 49.1069 174.955 49.355 175.267 49.355H183.745C184.057 49.355 184.31 49.1069 184.31 48.8C184.31 48.493 184.057 48.2449 183.745 48.2449H175.267C174.955 48.2449 174.702 48.493 174.702 48.8Z" fill="white"/>
<path d="M172.441 49.3555C172.588 49.3555 172.735 49.2944 172.842 49.1945C172.944 49.0891 173.006 48.9447 173.006 48.8004C173.006 48.6556 172.944 48.5112 172.842 48.4119C172.633 48.201 172.249 48.201 172.04 48.4063C171.938 48.5112 171.876 48.6556 171.876 48.8004C171.876 48.9447 171.938 49.0891 172.04 49.1945C172.147 49.2944 172.288 49.3555 172.441 49.3555Z" fill="white"/>
<path d="M195.048 44.9149C195.195 44.9149 195.342 44.8588 195.45 44.7539C195.557 44.6485 195.614 44.5041 195.614 44.3598C195.614 44.215 195.557 44.0706 195.45 43.9657C195.235 43.7604 194.856 43.7604 194.647 43.9657C194.545 44.0706 194.483 44.215 194.483 44.3598C194.483 44.5041 194.545 44.6485 194.647 44.7539C194.755 44.8588 194.902 44.9149 195.048 44.9149Z" fill="white"/>
<path d="M186.571 52.6852H172.441C172.129 52.6852 171.876 52.9334 171.876 53.2403C171.876 53.5472 172.129 53.7954 172.441 53.7954H186.571C186.883 53.7954 187.136 53.5472 187.136 53.2403C187.136 52.9334 186.883 52.6852 186.571 52.6852Z" fill="white"/>
<defs>
<filter id="filter0_d_1_11286" x="0" y="0.494995" width="333.753" height="94.5046" filterUnits="userSpaceOnUse" color-interpolation-filters="sRGB">
<feFlood flood-opacity="0" result="BackgroundImageFix"/>
<feColorMatrix in="SourceAlpha" type="matrix" values="0 0 0 0 0 0 0 0 0 0 0 0 0 0 0 0 0 0 127 0" result="hardAlpha"/>
<feOffset dx="5" dy="5"/>
<feGaussianBlur stdDeviation="10"/>
<feColorMatrix type="matrix" values="0 0 0 0 0.890196 0 0 0 0 0.721569 0 0 0 0 0.45098 0 0 0 0.5 0"/>
<feBlend mode="normal" in2="BackgroundImageFix" result="effect1_dropShadow_1_11286"/>
<feBlend mode="normal" in="SourceGraphic" in2="effect1_dropShadow_1_11286" result="shape"/>
</filter>
</defs>
</svg>
