<svg width="34" height="29" viewBox="0 0 34 29" fill="none" xmlns="http://www.w3.org/2000/svg">
<path d="M22.4261 9.00462L17.5806 7.53729C17.2169 7.42775 16.843 7.38919 16.4726 7.40285V7.39026H10.5833L0.139648 3.8873L0.171223 18.6994L3.1692 20.212L4.94426 15.8319L7.53734 16.8791L8.20969 15.183L9.18345 16.1659L8.27496 17.0831C7.95921 17.4018 7.77826 17.8426 7.77826 18.2936C7.77826 19.2165 8.50739 19.9669 9.41429 19.9993C9.44586 20.8938 10.1583 21.6129 11.0445 21.6447C11.0761 22.5392 11.7885 23.2583 12.6747 23.2902C12.7073 24.2055 13.4502 24.9415 14.3648 24.9415C14.8114 24.9415 15.2484 24.7588 15.5639 24.4401L16.4726 23.5232L16.8377 23.8917C17.1535 24.2104 17.5902 24.393 18.037 24.393C18.9516 24.393 19.6948 23.6571 19.7269 22.7417C20.6131 22.7098 21.3255 21.9908 21.3571 21.0963C22.2433 21.0644 22.9557 20.3453 22.9873 19.4508C23.8942 19.4179 24.6236 18.668 24.6236 17.7452C24.6236 17.6672 24.6111 17.5904 24.6008 17.513L25.3806 16.7259L26.0107 17.9985L29.424 16.2757L31.4866 20.2505L33.8613 18.6533V4.47729L22.4261 9.00462ZM2.60616 18.7015L1.25696 18.0205L1.22963 5.40873L7.18418 7.40633L2.60616 18.7015ZM6.93212 15.453L5.35526 14.8166L8.21791 7.75288L9.77567 8.27564L6.93212 15.453ZM8.86506 18.2936C8.86506 18.1316 8.92953 17.9733 9.04309 17.8584L9.99855 16.8943C10.1121 16.7797 10.2692 16.7144 10.4294 16.7144C10.7654 16.7144 11.0386 16.9905 11.0386 17.3292C11.0386 17.491 10.9739 17.6495 10.8603 17.7642L9.90515 18.7286C9.79159 18.8432 9.63451 18.9083 9.47425 18.9083C9.13835 18.9083 8.86506 18.6324 8.86506 18.2936ZM10.4952 19.9391C10.4952 19.777 10.5597 19.6188 10.6733 19.5039L11.6287 18.5397C11.7423 18.4251 11.8994 18.3598 12.0596 18.3598C12.3955 18.3598 12.6688 18.6359 12.6688 18.9747C12.6688 19.1364 12.6041 19.295 12.4905 19.4096L11.5353 20.374C11.4218 20.4886 11.2647 20.5537 11.1044 20.5537C10.7685 20.5537 10.4952 20.2778 10.4952 19.9391ZM12.1254 21.5845C12.1254 21.4225 12.1899 21.2642 12.3035 21.1493L13.2589 20.1852C13.3725 20.0706 13.5296 20.0052 13.6898 20.0052C14.0257 20.0052 14.299 20.2813 14.299 20.6201C14.299 20.7819 14.2343 20.9404 14.1207 21.055L13.1655 22.0194C13.052 22.134 12.8949 22.1991 12.7346 22.1991C12.3987 22.1991 12.1254 21.9233 12.1254 21.5845ZM15.7509 22.7005L14.7957 23.6648C14.6822 23.7795 14.5251 23.8445 14.3648 23.8445C14.0289 23.8445 13.7556 23.5687 13.7556 23.2299C13.7556 23.0679 13.8201 22.9096 13.9337 22.7947L14.8891 21.8306C15.0027 21.716 15.1598 21.6506 15.32 21.6506C15.6559 21.6506 15.9292 21.9267 15.9292 22.2655C15.9292 22.4273 15.8645 22.5858 15.7509 22.7005ZM22.9276 18.3598C22.7673 18.3598 22.6103 18.2947 22.4967 18.1801L17.9436 13.5842L17.1752 14.3598L21.7283 18.9554C21.8419 19.0703 21.9066 19.2286 21.9066 19.3906C21.9066 19.7294 21.6333 20.0052 21.2974 20.0052C21.1371 20.0052 20.9801 19.9401 20.8665 19.8255L16.3134 15.2296L15.545 16.0052L20.0981 20.6008C20.2117 20.7157 20.2764 20.874 20.2764 21.036C20.2764 21.3748 20.0031 21.6506 19.6672 21.6506C19.5069 21.6506 19.3499 21.5856 19.2363 21.4709L14.6832 16.875L13.9148 17.6506L18.4679 22.2462C18.5815 22.3611 18.6462 22.5194 18.6462 22.6814C18.6462 23.0202 18.3729 23.2961 18.037 23.2961C17.8768 23.2961 17.7197 23.231 17.6061 23.1164L16.9932 22.4975C17.0041 22.4209 17.016 22.344 17.016 22.2655C17.016 21.3424 16.2866 20.5922 15.3797 20.5598C15.3482 19.6654 14.6357 18.9463 13.7495 18.9144C13.718 18.0199 13.0055 17.3009 12.1193 17.269C12.0867 16.3536 11.344 15.6174 10.4294 15.6174C10.3522 15.6174 10.2761 15.63 10.1997 15.6404L8.64828 14.0745L10.863 8.48721H14.074L12.0787 10.5014C11.758 10.8244 11.582 11.2545 11.582 11.7119C11.582 12.6557 12.3427 13.4235 13.278 13.4235C13.7246 13.4235 14.1616 13.2408 14.4771 12.9222L15.9168 11.4687C16.2113 11.1725 16.73 11.161 17.0367 11.4446L18.3071 12.6201C18.7293 13.0105 19.1984 13.3354 19.7004 13.5898L23.3585 17.31C23.4721 17.4249 23.5368 17.5831 23.5368 17.7452C23.5368 18.0839 23.2635 18.3598 22.9276 18.3598ZM24.0802 16.4872L21.8466 14.2157C22.0462 14.2347 22.2473 14.2462 22.45 14.2462V13.1493C21.1849 13.1493 19.9742 12.6739 19.0418 11.811L17.7712 10.6361C17.054 9.97142 15.8374 9.99793 15.1489 10.6937L13.7095 12.1468C13.5954 12.2609 13.4383 12.3265 13.278 12.3265C12.9421 12.3265 12.6688 12.0507 12.6688 11.7119C12.6688 11.5472 12.7317 11.3932 12.8469 11.2767L14.9183 9.1862C15.527 8.57184 16.441 8.33804 17.2681 8.58818L22.0685 10.0416L24.8674 15.6927L24.0802 16.4872ZM26.4966 16.5269L23.2019 9.87554L25.6082 8.92267L28.9196 15.3038L26.4966 16.5269ZM32.7746 18.0665L31.8886 18.6627L26.626 8.52015L32.7746 6.08602V18.0665Z" fill="#E3B873"/>
<ellipse cx="19.6667" cy="1.07244" rx="0.485591" ry="0.490129" fill="#E3B873"/>
<ellipse cx="7.40991" cy="24.2159" rx="0.485591" ry="0.490129" fill="#E3B873"/>
<ellipse cx="9.46801" cy="25.9202" rx="0.485591" ry="0.490129" fill="#E3B873"/>
<ellipse cx="11.8166" cy="27.1705" rx="0.485591" ry="0.490129" fill="#E3B873"/>
<ellipse cx="14.3655" cy="27.9704" rx="0.485591" ry="0.490129" fill="#E3B873"/>
<ellipse cx="22.2141" cy="1.85262" rx="0.485591" ry="0.490129" fill="#E3B873"/>
<ellipse cx="24.5632" cy="3.1187" rx="0.485591" ry="0.490129" fill="#E3B873"/>
<path d="M26.8305 2.41025V5.23813H23.9971" stroke="#E3B873" stroke-linecap="round" stroke-linejoin="round"/>
<path d="M5.01039 23.8963L5.01039 21.6083L7.27441 21.6083" stroke="#E3B873" stroke-linecap="round" stroke-linejoin="round"/>
<path d="M7.80078 4.41179C9.3359 3.0635 10.3124 2.44319 12.1519 1.71823C14.1033 0.94917 15.4237 0.768573 17.5441 0.768585" stroke="#E3B873" stroke-linecap="round"/>
<path d="M28.4046 22.0638C27.2633 23.8606 25.1376 25.615 23.4089 26.5784C21.575 27.6004 19.6102 28.1762 16.9931 28.3139" stroke="#E3B873" stroke-linecap="round"/>
</svg>
